<svg xmlns="http://www.w3.org/2000/svg" xmlns:xlink="http://www.w3.org/1999/xlink" version="1.1" width="256" height="256" viewBox="0 0 256 256" xml:space="preserve">

<defs>
</defs>
<g style="stroke: none; stroke-width: 0; stroke-dasharray: none; stroke-linecap: butt; stroke-linejoin: miter; stroke-miterlimit: 10; fill: none; fill-rule: nonzero; opacity: 1;" transform="translate(1.4065934065934016 1.4065934065934016) scale(2.81 2.81)" >
	<path d="M 61.354 61.599 c -0.637 0 -1.279 -0.201 -1.823 -0.618 L 41.906 47.478 c -0.741 -0.568 -1.176 -1.449 -1.176 -2.382 V 18.789 c 0 -1.657 1.344 -3.001 3.001 -3.001 c 1.657 0 3.001 1.344 3.001 3.001 v 24.826 l 16.449 12.601 c 1.316 1.008 1.565 2.891 0.558 4.207 C 63.148 61.195 62.256 61.599 61.354 61.599 z" style="stroke: none; stroke-width: 1; stroke-dasharray: none; stroke-linecap: butt; stroke-linejoin: miter; stroke-miterlimit: 10; fill: rgb(48,79,255); fill-rule: nonzero; opacity: 1;" transform=" matrix(1 0 0 1 0 0) " stroke-linecap="round" />
	<path d="M 30.7 87.46 c -0.341 0 -0.688 -0.059 -1.026 -0.182 C 18.379 83.167 9.36 74.904 4.28 64.01 C -0.8 53.115 -1.334 40.895 2.777 29.6 C 9.106 12.213 25.144 0.595 43.635 0.001 c 1.645 -0.047 3.043 1.247 3.096 2.903 S 45.484 5.947 43.828 6 C 27.802 6.514 13.902 16.584 8.417 31.652 c -3.563 9.789 -3.1 20.38 1.303 29.821 s 12.218 16.602 22.007 20.165 c 1.558 0.567 2.361 2.289 1.794 3.847 C 33.077 86.703 31.926 87.46 30.7 87.46 z" style="stroke: none; stroke-width: 1; stroke-dasharray: none; stroke-linecap: butt; stroke-linejoin: miter; stroke-miterlimit: 10; fill: rgb(34,34,34); fill-rule: nonzero; opacity: 1;" transform=" matrix(1 0 0 1 0 0) " stroke-linecap="round" />
	<path d="M 45.077 90 c -5.153 0 -10.361 -0.887 -15.402 -2.721 c -1.558 -0.568 -2.361 -2.289 -1.793 -3.847 c 0.567 -1.557 2.291 -2.358 3.846 -1.793 c 15.707 5.717 33.289 0.81 43.749 -12.211 c 1.038 -1.291 2.929 -1.498 4.219 -0.46 c 1.292 1.038 1.497 2.927 0.46 4.219 C 71.441 84.032 58.447 90 45.077 90 z" style="stroke: none; stroke-width: 1; stroke-dasharray: none; stroke-linecap: butt; stroke-linejoin: miter; stroke-miterlimit: 10; fill: rgb(34,34,34); fill-rule: nonzero; opacity: 1;" transform=" matrix(1 0 0 1 0 0) " stroke-linecap="round" />
	<path d="M 59.9 8.699 c -0.351 0 -0.706 -0.062 -1.054 -0.192 L 58.4 8.342 c -1.556 -0.569 -2.357 -2.292 -1.788 -3.849 c 0.569 -1.557 2.297 -2.355 3.849 -1.788 l 0.492 0.182 c 1.551 0.582 2.338 2.312 1.755 3.863 C 62.258 7.956 61.114 8.699 59.9 8.699 z" style="stroke: none; stroke-width: 1; stroke-dasharray: none; stroke-linecap: butt; stroke-linejoin: miter; stroke-miterlimit: 10; fill: rgb(48,79,255); fill-rule: nonzero; opacity: 1;" transform=" matrix(1 0 0 1 0 0) " stroke-linecap="round" />
	<path d="M 86.876 52.13 c -0.098 0 -0.195 -0.005 -0.294 -0.014 c -1.649 -0.16 -2.857 -1.627 -2.697 -3.277 c 0.03 -0.312 0.059 -0.623 0.082 -0.935 c 0.127 -1.653 1.568 -2.882 3.222 -2.763 c 1.653 0.126 2.889 1.569 2.763 3.222 c -0.027 0.351 -0.058 0.703 -0.092 1.056 C 89.709 50.97 88.403 52.13 86.876 52.13 z M 86.513 41.176 c -1.445 0 -2.718 -1.046 -2.958 -2.518 c -0.049 -0.303 -0.104 -0.604 -0.16 -0.905 c -0.312 -1.628 0.756 -3.2 2.384 -3.511 c 1.624 -0.311 3.199 0.757 3.51 2.384 c 0.068 0.354 0.131 0.708 0.19 1.064 c 0.267 1.636 -0.843 3.178 -2.478 3.445 C 86.836 41.163 86.674 41.176 86.513 41.176 z M 83.336 30.686 c -1.146 0 -2.24 -0.66 -2.74 -1.773 l -0.386 -0.826 c -0.722 -1.492 -0.099 -3.287 1.393 -4.008 c 1.495 -0.724 3.287 -0.099 4.009 1.393 l 0.46 0.984 c 0.678 1.512 0.003 3.288 -1.509 3.966 C 84.164 30.601 83.746 30.686 83.336 30.686 z M 77.561 21.37 c -0.869 0 -1.731 -0.376 -2.325 -1.1 c -0.196 -0.24 -0.396 -0.478 -0.597 -0.714 c -1.079 -1.258 -0.933 -3.153 0.325 -4.231 c 1.256 -1.077 3.152 -0.933 4.231 0.326 c 0.232 0.27 0.461 0.543 0.687 0.819 c 1.049 1.283 0.86 3.173 -0.423 4.223 C 78.902 21.147 78.229 21.37 77.561 21.37 z M 69.565 13.867 c -0.606 0 -1.218 -0.183 -1.748 -0.564 c -0.251 -0.181 -0.505 -0.358 -0.761 -0.532 c -1.369 -0.934 -1.721 -2.801 -0.786 -4.17 c 0.935 -1.368 2.8 -1.722 4.17 -0.786 c 0.295 0.201 0.588 0.406 0.878 0.614 c 1.346 0.967 1.654 2.842 0.687 4.188 C 71.419 13.433 70.499 13.867 69.565 13.867 z" style="stroke: none; stroke-width: 1; stroke-dasharray: none; stroke-linecap: butt; stroke-linejoin: miter; stroke-miterlimit: 10; fill: rgb(48,79,255); fill-rule: nonzero; opacity: 1;" transform=" matrix(1 0 0 1 0 0) " stroke-linecap="round" />
	<path d="M 84.533 62.358 c -0.343 0 -0.692 -0.06 -1.033 -0.185 c -1.556 -0.569 -2.355 -2.294 -1.785 -3.85 l 0.157 -0.441 c 0.553 -1.563 2.267 -2.383 3.83 -1.828 c 1.563 0.553 2.381 2.268 1.828 3.83 l -0.181 0.503 C 86.904 61.604 85.756 62.358 84.533 62.358 z" style="stroke: none; stroke-width: 1; stroke-dasharray: none; stroke-linecap: butt; stroke-linejoin: miter; stroke-miterlimit: 10; fill: rgb(48,79,255); fill-rule: nonzero; opacity: 1;" transform=" matrix(1 0 0 1 0 0) " stroke-linecap="round" />
</g>
</svg>