<svg xmlns="http://www.w3.org/2000/svg" xmlns:xlink="http://www.w3.org/1999/xlink" version="1.1" width="256" height="256" viewBox="0 0 256 256" xml:space="preserve">

<defs>
</defs>
<g style="stroke: none; stroke-width: 0; stroke-dasharray: none; stroke-linecap: butt; stroke-linejoin: miter; stroke-miterlimit: 10; fill: none; fill-rule: nonzero; opacity: 1;" transform="translate(1.4065934065934016 1.4065934065934016) scale(2.81 2.81)" >
	<circle cx="45" cy="45" r="45" style="stroke: none; stroke-width: 1; stroke-dasharray: none; stroke-linecap: butt; stroke-linejoin: miter; stroke-miterlimit: 10; fill: rgb(32,196,203); fill-rule: nonzero; opacity: 1;" transform="  matrix(1 0 0 1 0 0) "/>
	<path d="M 66.195 26.064 H 18.497 c -1.373 0 -2.497 1.123 -2.497 2.497 v 33.815 c 0 1.373 1.123 2.497 2.497 2.497 h 47.698 c 1.373 0 2.497 -1.123 2.497 -2.497 V 28.561 C 68.691 27.188 67.568 26.064 66.195 26.064 z M 64.423 60.35 c 0 0.57 -0.466 1.036 -1.036 1.036 H 21.304 c -0.57 0 -1.036 -0.466 -1.036 -1.036 V 30.948 c 0 -0.57 0.466 -1.036 1.036 -1.036 h 42.083 c 0.57 0 1.036 0.466 1.036 1.036 V 60.35 z" style="stroke: none; stroke-width: 1; stroke-dasharray: none; stroke-linecap: butt; stroke-linejoin: miter; stroke-miterlimit: 10; fill: rgb(27,167,173); fill-rule: nonzero; opacity: 1;" transform=" matrix(1 0 0 1 0 0) " stroke-linecap="round" />
	<path d="M 49.188 74.012 H 35.504 c -1.018 0 -1.85 -0.833 -1.85 -1.85 v -0.54 c 0 -1.018 0.833 -1.85 1.85 -1.85 h 13.684 c 1.018 0 1.85 0.833 1.85 1.85 v 0.54 C 51.038 73.179 50.205 74.012 49.188 74.012 z" style="stroke: none; stroke-width: 1; stroke-dasharray: none; stroke-linecap: butt; stroke-linejoin: miter; stroke-miterlimit: 10; fill: rgb(27,167,173); fill-rule: nonzero; opacity: 1;" transform=" matrix(1 0 0 1 0 0) " stroke-linecap="round" />
	<path d="M 42.583 63.093 h -0.475 c -0.897 0 -1.63 0.734 -1.63 1.63 v 5.538 c 0 0.897 0.734 1.63 1.63 1.63 h 0.475 c 0.897 0 1.63 -0.734 1.63 -1.63 v -5.538 C 44.214 63.827 43.48 63.093 42.583 63.093 z" style="stroke: none; stroke-width: 1; stroke-dasharray: none; stroke-linecap: butt; stroke-linejoin: miter; stroke-miterlimit: 10; fill: rgb(27,167,173); fill-rule: nonzero; opacity: 1;" transform=" matrix(1 0 0 1 0 0) " stroke-linecap="round" />
	<path d="M 68.503 23.755 H 20.805 c -1.373 0 -2.497 1.123 -2.497 2.497 v 33.815 c 0 1.373 1.123 2.497 2.497 2.497 h 47.698 c 1.373 0 2.497 -1.123 2.497 -2.497 V 26.252 C 71 24.879 69.877 23.755 68.503 23.755 z M 66.732 58.041 c 0 0.57 -0.466 1.036 -1.036 1.036 H 23.613 c -0.57 0 -1.036 -0.466 -1.036 -1.036 V 28.639 c 0 -0.57 0.466 -1.036 1.036 -1.036 h 42.083 c 0.57 0 1.036 0.466 1.036 1.036 V 58.041 z" style="stroke: none; stroke-width: 1; stroke-dasharray: none; stroke-linecap: butt; stroke-linejoin: miter; stroke-miterlimit: 10; fill: rgb(255,255,255); fill-rule: nonzero; opacity: 1;" transform=" matrix(1 0 0 1 0 0) " stroke-linecap="round" />
	<path d="M 51.496 71.703 H 37.812 c -1.018 0 -1.85 -0.833 -1.85 -1.85 v -0.54 c 0 -1.018 0.833 -1.85 1.85 -1.85 h 13.684 c 1.018 0 1.85 0.833 1.85 1.85 v 0.54 C 53.347 70.87 52.514 71.703 51.496 71.703 z" style="stroke: none; stroke-width: 1; stroke-dasharray: none; stroke-linecap: butt; stroke-linejoin: miter; stroke-miterlimit: 10; fill: rgb(255,255,255); fill-rule: nonzero; opacity: 1;" transform=" matrix(1 0 0 1 0 0) " stroke-linecap="round" />
	<path d="M 44.892 60.785 h -0.475 c -0.897 0 -1.63 0.734 -1.63 1.63 v 5.538 c 0 0.897 0.734 1.63 1.63 1.63 h 0.475 c 0.897 0 1.63 -0.734 1.63 -1.63 v -5.538 C 46.522 61.518 45.789 60.785 44.892 60.785 z" style="stroke: none; stroke-width: 1; stroke-dasharray: none; stroke-linecap: butt; stroke-linejoin: miter; stroke-miterlimit: 10; fill: rgb(255,255,255); fill-rule: nonzero; opacity: 1;" transform=" matrix(1 0 0 1 0 0) " stroke-linecap="round" />
</g>
</svg>