<svg xmlns="http://www.w3.org/2000/svg" xmlns:xlink="http://www.w3.org/1999/xlink" version="1.1" width="256" height="256" viewBox="0 0 256 256" xml:space="preserve">

<defs>
</defs>
<g style="stroke: none; stroke-width: 0; stroke-dasharray: none; stroke-linecap: butt; stroke-linejoin: miter; stroke-miterlimit: 10; fill: none; fill-rule: nonzero; opacity: 1;" transform="translate(1.4065934065934016 1.4065934065934016) scale(2.81 2.81)" >
	<linearGradient id="SVGID_1" gradientUnits="userSpaceOnUse" x1="45" y1="84.7883" x2="45" y2="4.2607">
<stop offset="0%" style="stop-color:rgb(33,97,172);stop-opacity: 1"/>
<stop offset="100%" style="stop-color:rgb(43,127,226);stop-opacity: 1"/>
</linearGradient>
<circle cx="45" cy="45" r="45" style="stroke: none; stroke-width: 1; stroke-dasharray: none; stroke-linecap: butt; stroke-linejoin: miter; stroke-miterlimit: 10; fill: url(#SVGID_1); fill-rule: nonzero; opacity: 1;" transform="  matrix(1 0 0 1 0 0) "/>
	<path d="M 39.528 21.14 c -1.886 0.472 -3.405 1.283 -4.556 2.432 c -1.149 1.149 -1.725 2.904 -1.725 5.263 h 7.607 v 13.618 H 27.146 v -11.76 c 0.12 -8.904 3.951 -13.649 11.497 -14.24 L 39.528 21.14 z" style="stroke: none; stroke-width: 1; stroke-dasharray: none; stroke-linecap: butt; stroke-linejoin: miter; stroke-miterlimit: 10; fill: rgb(255,255,255); fill-rule: nonzero; opacity: 1;" transform=" matrix(1 0 0 1 0 0) " stroke-linecap="round" />
	<path d="M 61.528 21.14 c -1.886 0.472 -3.405 1.283 -4.556 2.432 c -1.149 1.149 -1.725 2.904 -1.725 5.263 h 7.607 v 13.618 H 49.146 v -11.76 c 0.12 -8.904 3.951 -13.649 11.497 -14.24 L 61.528 21.14 z" style="stroke: none; stroke-width: 1; stroke-dasharray: none; stroke-linecap: butt; stroke-linejoin: miter; stroke-miterlimit: 10; fill: rgb(255,255,255); fill-rule: nonzero; opacity: 1;" transform=" matrix(1 0 0 1 0 0) " stroke-linecap="round" />
</g>
</svg>