<svg width="0" height="0" class="hidden">
  <symbol xmlns="http://www.w3.org/2000/svg" xmlns:xlink="http://www.w3.org/1999/xlink" version="1.1" xml:space="preserve" viewBox="0 0 256 256" id="badge">
    <defs></defs>
    <g transform="translate(1.4065934065934016 1.4065934065934016) scale(2.81 2.81)">
      <path d="M 74.113 0 H 15.886 c -1.105 0 -2 0.895 -2 2 v 86 c 0 0.759 0.43 1.453 1.109 1.791 c 0.282 0.14 0.587 0.209 0.89 0.209 c 0.428 0 0.854 -0.138 1.208 -0.405 l 25.669 -19.432 c 1.324 -1.002 3.152 -1.002 4.476 0 l 25.668 19.432 c 0.606 0.458 1.418 0.533 2.098 0.196 c 0.68 -0.338 1.109 -1.032 1.109 -1.791 V 2 C 76.113 0.895 75.218 0 74.113 0 z" transform=" matrix(1 0 0 1 0 0) " stroke-linecap="round"></path>
    </g>
  </symbol>
  <symbol xmlns="http://www.w3.org/2000/svg" xmlns:xlink="http://www.w3.org/1999/xlink" version="1.1" xml:space="preserve" viewBox="0 0 256 256" id="check-mark-10120">
    <defs></defs>
    <g transform="translate(1.4065934065934016 1.4065934065934016) scale(2.81 2.81)">
      <path d="M 32 77 c -1.536 0 -3.071 -0.586 -4.243 -1.758 l -26 -26 c -2.343 -2.343 -2.343 -6.142 0 -8.485 c 2.343 -2.343 6.143 -2.343 8.485 0 L 32 62.515 l 47.758 -47.757 c 2.342 -2.343 6.143 -2.343 8.484 0 c 2.344 2.343 2.344 6.142 0 8.485 l -52 52 C 35.071 76.414 33.536 77 32 77 z" transform=" matrix(1 0 0 1 0 0) " stroke-linecap="round"></path>
    </g>
  </symbol>
  <symbol xmlns="http://www.w3.org/2000/svg" fill="currentColor" viewBox="0 0 16 16" id="chevron-down">
    <path fill-rule="evenodd" d="M1.646 4.646a.5.5 0 0 1 .708 0L8 10.293l5.646-5.647a.5.5 0 0 1 .708.708l-6 6a.5.5 0 0 1-.708 0l-6-6a.5.5 0 0 1 0-.708z"></path>
  </symbol>
  <symbol xmlns="http://www.w3.org/2000/svg" xmlns:xlink="http://www.w3.org/1999/xlink" version="1.1" xml:space="preserve" viewBox="0 0 256 256" id="clock">
    <defs></defs>
    <g transform="translate(1.4065934065934016 1.4065934065934016) scale(2.81 2.81)">
      <path d="M 61.354 61.599 c -0.637 0 -1.279 -0.201 -1.823 -0.618 L 41.906 47.478 c -0.741 -0.568 -1.176 -1.449 -1.176 -2.382 V 18.789 c 0 -1.657 1.344 -3.001 3.001 -3.001 c 1.657 0 3.001 1.344 3.001 3.001 v 24.826 l 16.449 12.601 c 1.316 1.008 1.565 2.891 0.558 4.207 C 63.148 61.195 62.256 61.599 61.354 61.599 z" transform=" matrix(1 0 0 1 0 0) " stroke-linecap="round"></path>
      <path d="M 30.7 87.46 c -0.341 0 -0.688 -0.059 -1.026 -0.182 C 18.379 83.167 9.36 74.904 4.28 64.01 C -0.8 53.115 -1.334 40.895 2.777 29.6 C 9.106 12.213 25.144 0.595 43.635 0.001 c 1.645 -0.047 3.043 1.247 3.096 2.903 S 45.484 5.947 43.828 6 C 27.802 6.514 13.902 16.584 8.417 31.652 c -3.563 9.789 -3.1 20.38 1.303 29.821 s 12.218 16.602 22.007 20.165 c 1.558 0.567 2.361 2.289 1.794 3.847 C 33.077 86.703 31.926 87.46 30.7 87.46 z" transform=" matrix(1 0 0 1 0 0) " stroke-linecap="round"></path>
      <path d="M 45.077 90 c -5.153 0 -10.361 -0.887 -15.402 -2.721 c -1.558 -0.568 -2.361 -2.289 -1.793 -3.847 c 0.567 -1.557 2.291 -2.358 3.846 -1.793 c 15.707 5.717 33.289 0.81 43.749 -12.211 c 1.038 -1.291 2.929 -1.498 4.219 -0.46 c 1.292 1.038 1.497 2.927 0.46 4.219 C 71.441 84.032 58.447 90 45.077 90 z" transform=" matrix(1 0 0 1 0 0) " stroke-linecap="round"></path>
      <path d="M 59.9 8.699 c -0.351 0 -0.706 -0.062 -1.054 -0.192 L 58.4 8.342 c -1.556 -0.569 -2.357 -2.292 -1.788 -3.849 c 0.569 -1.557 2.297 -2.355 3.849 -1.788 l 0.492 0.182 c 1.551 0.582 2.338 2.312 1.755 3.863 C 62.258 7.956 61.114 8.699 59.9 8.699 z" transform=" matrix(1 0 0 1 0 0) " stroke-linecap="round"></path>
      <path d="M 86.876 52.13 c -0.098 0 -0.195 -0.005 -0.294 -0.014 c -1.649 -0.16 -2.857 -1.627 -2.697 -3.277 c 0.03 -0.312 0.059 -0.623 0.082 -0.935 c 0.127 -1.653 1.568 -2.882 3.222 -2.763 c 1.653 0.126 2.889 1.569 2.763 3.222 c -0.027 0.351 -0.058 0.703 -0.092 1.056 C 89.709 50.97 88.403 52.13 86.876 52.13 z M 86.513 41.176 c -1.445 0 -2.718 -1.046 -2.958 -2.518 c -0.049 -0.303 -0.104 -0.604 -0.16 -0.905 c -0.312 -1.628 0.756 -3.2 2.384 -3.511 c 1.624 -0.311 3.199 0.757 3.51 2.384 c 0.068 0.354 0.131 0.708 0.19 1.064 c 0.267 1.636 -0.843 3.178 -2.478 3.445 C 86.836 41.163 86.674 41.176 86.513 41.176 z M 83.336 30.686 c -1.146 0 -2.24 -0.66 -2.74 -1.773 l -0.386 -0.826 c -0.722 -1.492 -0.099 -3.287 1.393 -4.008 c 1.495 -0.724 3.287 -0.099 4.009 1.393 l 0.46 0.984 c 0.678 1.512 0.003 3.288 -1.509 3.966 C 84.164 30.601 83.746 30.686 83.336 30.686 z M 77.561 21.37 c -0.869 0 -1.731 -0.376 -2.325 -1.1 c -0.196 -0.24 -0.396 -0.478 -0.597 -0.714 c -1.079 -1.258 -0.933 -3.153 0.325 -4.231 c 1.256 -1.077 3.152 -0.933 4.231 0.326 c 0.232 0.27 0.461 0.543 0.687 0.819 c 1.049 1.283 0.86 3.173 -0.423 4.223 C 78.902 21.147 78.229 21.37 77.561 21.37 z M 69.565 13.867 c -0.606 0 -1.218 -0.183 -1.748 -0.564 c -0.251 -0.181 -0.505 -0.358 -0.761 -0.532 c -1.369 -0.934 -1.721 -2.801 -0.786 -4.17 c 0.935 -1.368 2.8 -1.722 4.17 -0.786 c 0.295 0.201 0.588 0.406 0.878 0.614 c 1.346 0.967 1.654 2.842 0.687 4.188 C 71.419 13.433 70.499 13.867 69.565 13.867 z" transform=" matrix(1 0 0 1 0 0) " stroke-linecap="round"></path>
      <path d="M 84.533 62.358 c -0.343 0 -0.692 -0.06 -1.033 -0.185 c -1.556 -0.569 -2.355 -2.294 -1.785 -3.85 l 0.157 -0.441 c 0.553 -1.563 2.267 -2.383 3.83 -1.828 c 1.563 0.553 2.381 2.268 1.828 3.83 l -0.181 0.503 C 86.904 61.604 85.756 62.358 84.533 62.358 z" transform=" matrix(1 0 0 1 0 0) " stroke-linecap="round"></path>
    </g>
  </symbol>
  <symbol xmlns="http://www.w3.org/2000/svg" xmlns:xlink="http://www.w3.org/1999/xlink" version="1.1" xml:space="preserve" viewBox="0 0 256 256" id="computer">
    <defs></defs>
    <g transform="translate(1.4065934065934016 1.4065934065934016) scale(2.81 2.81)">
      <circle cx="45" cy="45" r="45" transform="  matrix(1 0 0 1 0 0) "></circle>
      <path d="M 66.195 26.064 H 18.497 c -1.373 0 -2.497 1.123 -2.497 2.497 v 33.815 c 0 1.373 1.123 2.497 2.497 2.497 h 47.698 c 1.373 0 2.497 -1.123 2.497 -2.497 V 28.561 C 68.691 27.188 67.568 26.064 66.195 26.064 z M 64.423 60.35 c 0 0.57 -0.466 1.036 -1.036 1.036 H 21.304 c -0.57 0 -1.036 -0.466 -1.036 -1.036 V 30.948 c 0 -0.57 0.466 -1.036 1.036 -1.036 h 42.083 c 0.57 0 1.036 0.466 1.036 1.036 V 60.35 z" transform=" matrix(1 0 0 1 0 0) " stroke-linecap="round"></path>
      <path d="M 49.188 74.012 H 35.504 c -1.018 0 -1.85 -0.833 -1.85 -1.85 v -0.54 c 0 -1.018 0.833 -1.85 1.85 -1.85 h 13.684 c 1.018 0 1.85 0.833 1.85 1.85 v 0.54 C 51.038 73.179 50.205 74.012 49.188 74.012 z" transform=" matrix(1 0 0 1 0 0) " stroke-linecap="round"></path>
      <path d="M 42.583 63.093 h -0.475 c -0.897 0 -1.63 0.734 -1.63 1.63 v 5.538 c 0 0.897 0.734 1.63 1.63 1.63 h 0.475 c 0.897 0 1.63 -0.734 1.63 -1.63 v -5.538 C 44.214 63.827 43.48 63.093 42.583 63.093 z" transform=" matrix(1 0 0 1 0 0) " stroke-linecap="round"></path>
      <path d="M 68.503 23.755 H 20.805 c -1.373 0 -2.497 1.123 -2.497 2.497 v 33.815 c 0 1.373 1.123 2.497 2.497 2.497 h 47.698 c 1.373 0 2.497 -1.123 2.497 -2.497 V 26.252 C 71 24.879 69.877 23.755 68.503 23.755 z M 66.732 58.041 c 0 0.57 -0.466 1.036 -1.036 1.036 H 23.613 c -0.57 0 -1.036 -0.466 -1.036 -1.036 V 28.639 c 0 -0.57 0.466 -1.036 1.036 -1.036 h 42.083 c 0.57 0 1.036 0.466 1.036 1.036 V 58.041 z" transform=" matrix(1 0 0 1 0 0) " stroke-linecap="round"></path>
      <path d="M 51.496 71.703 H 37.812 c -1.018 0 -1.85 -0.833 -1.85 -1.85 v -0.54 c 0 -1.018 0.833 -1.85 1.85 -1.85 h 13.684 c 1.018 0 1.85 0.833 1.85 1.85 v 0.54 C 53.347 70.87 52.514 71.703 51.496 71.703 z" transform=" matrix(1 0 0 1 0 0) " stroke-linecap="round"></path>
      <path d="M 44.892 60.785 h -0.475 c -0.897 0 -1.63 0.734 -1.63 1.63 v 5.538 c 0 0.897 0.734 1.63 1.63 1.63 h 0.475 c 0.897 0 1.63 -0.734 1.63 -1.63 v -5.538 C 46.522 61.518 45.789 60.785 44.892 60.785 z" transform=" matrix(1 0 0 1 0 0) " stroke-linecap="round"></path>
    </g>
  </symbol>
  <symbol xmlns="http://www.w3.org/2000/svg" fill="currentColor" viewBox="0 0 16 16" id="dash">
    <path fill-rule="evenodd" d="M2 8a.5.5 0 0 1 .5-.5h11a.5.5 0 0 1 0 1h-11A.5.5 0 0 1 2 8Z"></path>
  </symbol>
  <symbol xmlns="http://www.w3.org/2000/svg" viewBox="0 0 512 512" id="easy">
    <g id="Out_line">
      <path d="m184 304h-112a8.00008 8.00008 0 0 0 -8 8v96a8.00008 8.00008 0 0 0 8 8h112a8.00008 8.00008 0 0 0 8-8v-96a8.00008 8.00008 0 0 0 -8-8zm-8 96h-96v-80h96z"></path>
      <path d="m96 336h32v16h-32z"></path>
      <path d="m128 368h32v16h-32z"></path>
      <path d="m380 64h-244v-40a7.99985 7.99985 0 0 0 -12.87793-6.34082l-104 80a8 8 0 0 0 0 12.68164l104 80a7.99985 7.99985 0 0 0 12.87793-6.34082v-40h216a64.07239 64.07239 0 0 1 64 64v144a63.89737 63.89737 0 0 1 -48 61.99341v-181.99341a8.00008 8.00008 0 0 0 -8-8h-336a8.00008 8.00008 0 0 0 -8 8v256a8.00008 8.00008 0 0 0 8 8h356a116.13134 116.13134 0 0 0 116-116v-200a116.13134 116.13134 0 0 0 -116-116zm-28 176v192h-112v-192zm-208 0v32h-32v-32zm-112 0h64v40a8.00008 8.00008 0 0 0 8 8h48a8.00008 8.00008 0 0 0 8-8v-40h64v192h-192zm448 140a100.113 100.113 0 0 1 -100 100h-348v-32h328a8.00008 8.00008 0 0 0 8-8v-9.605a79.86446 79.86446 0 0 0 64-78.395v-144a80.09041 80.09041 0 0 0 -80-80h-224a8.00008 8.00008 0 0 0 -8 8v31.75293l-82.87891-63.75293 82.87891-63.75293v31.75293a8.00008 8.00008 0 0 0 8 8h252a100.113 100.113 0 0 1 100 100z"></path>
      <path d="m320 400h16v16h-16z"></path>
      <path d="m288 400h16v16h-16z"></path>
      <path d="m256 400h16v16h-16z"></path>
    </g>
  </symbol>
  <symbol xmlns="http://www.w3.org/2000/svg" xmlns:xlink="http://www.w3.org/1999/xlink" version="1.1" xml:space="preserve" viewBox="0 0 256 256" id="growth">
    <defs></defs>
    <g transform="translate(1.4065934065934016 1.4065934065934016) scale(2.81 2.81)">
      <path d="M 88.326 7.744 l -18.395 -3.09 c -1.762 -0.296 -3.003 1.686 -1.966 3.142 l 4.698 6.594 L 1.155 65.33 c -1.237 0.881 -1.525 2.598 -0.644 3.835 l 2.604 3.656 c 0.881 1.237 2.598 1.525 3.835 0.644 l 71.509 -50.94 l 4.812 6.755 c 1.037 1.455 3.315 0.931 3.612 -0.831 l 3.09 -18.395 C 90.155 8.962 89.419 7.928 88.326 7.744 z" transform=" matrix(1 0 0 1 0 0) " stroke-linecap="round"></path>
      <path d="M 79.605 31.892 l -2.201 -3.09 l -11.778 8.39 V 87.25 c 0 1.519 1.231 2.75 2.75 2.75 h 8.782 c 1.519 0 2.75 -1.231 2.75 -2.75 V 32.256 C 79.807 32.134 79.698 32.022 79.605 31.892 z" transform=" matrix(1 0 0 1 0 0) " stroke-linecap="round"></path>
      <path d="M 47.115 50.378 V 87.25 c 0 1.519 1.231 2.75 2.75 2.75 h 8.782 c 1.519 0 2.75 -1.231 2.75 -2.75 V 40.205 L 47.115 50.378 z" transform=" matrix(1 0 0 1 0 0) " stroke-linecap="round"></path>
      <path d="M 28.604 63.565 V 87.25 c 0 1.519 1.231 2.75 2.75 2.75 h 8.782 c 1.519 0 2.75 -1.231 2.75 -2.75 V 53.392 L 28.604 63.565 z" transform=" matrix(1 0 0 1 0 0) " stroke-linecap="round"></path>
      <path d="M 10.092 76.752 V 87.25 c 0 1.519 1.231 2.75 2.75 2.75 h 8.782 c 1.519 0 2.75 -1.231 2.75 -2.75 V 66.578 L 10.092 76.752 z" transform=" matrix(1 0 0 1 0 0) " stroke-linecap="round"></path>
    </g>
  </symbol>
  <symbol xmlns="http://www.w3.org/2000/svg" xmlns:xlink="http://www.w3.org/1999/xlink" version="1.1" xml:space="preserve" viewBox="0 0 256 256" id="left-quotes">
    <defs></defs>
    <g transform="translate(1.4065934065934016 1.4065934065934016) scale(2.81 2.81)">
      <linearGradient id="SVGID_1" gradientUnits="userSpaceOnUse" x1="45" y1="84.7883" x2="45" y2="4.2607">
        <stop offset="0%"></stop>
        <stop offset="100%"></stop>
      </linearGradient>
      <circle cx="45" cy="45" r="45" transform="  matrix(1 0 0 1 0 0) "></circle>
      <path d="M 39.528 21.14 c -1.886 0.472 -3.405 1.283 -4.556 2.432 c -1.149 1.149 -1.725 2.904 -1.725 5.263 h 7.607 v 13.618 H 27.146 v -11.76 c 0.12 -8.904 3.951 -13.649 11.497 -14.24 L 39.528 21.14 z" transform=" matrix(1 0 0 1 0 0) " stroke-linecap="round"></path>
      <path d="M 61.528 21.14 c -1.886 0.472 -3.405 1.283 -4.556 2.432 c -1.149 1.149 -1.725 2.904 -1.725 5.263 h 7.607 v 13.618 H 49.146 v -11.76 c 0.12 -8.904 3.951 -13.649 11.497 -14.24 L 61.528 21.14 z" transform=" matrix(1 0 0 1 0 0) " stroke-linecap="round"></path>
    </g>
  </symbol>
  <symbol xmlns="http://www.w3.org/2000/svg" xmlns:xlink="http://www.w3.org/1999/xlink" version="1.1" xml:space="preserve" viewBox="0 0 256 256" id="menu">
    <defs></defs>
    <g transform="translate(1.4065934065934016 1.4065934065934016) scale(2.81 2.81)">
      <path d="M 75.949 90 H 14.051 C 6.303 90 0 83.697 0 75.949 V 14.051 C 0 6.303 6.303 0 14.051 0 h 61.898 C 83.697 0 90 6.303 90 14.051 v 61.898 C 90 83.697 83.697 90 75.949 90 z M 14.051 8 C 10.714 8 8 10.714 8 14.051 v 61.898 C 8 79.285 10.714 82 14.051 82 h 61.898 C 79.285 82 82 79.285 82 75.949 V 14.051 C 82 10.714 79.285 8 75.949 8 H 14.051 z" transform=" matrix(1 0 0 1 0 0) " stroke-linecap="round"></path>
      <path d="M 69.488 29.432 H 20.511 c -2.209 0 -4 -1.791 -4 -4 s 1.791 -4 4 -4 h 48.977 c 2.209 0 4 1.791 4 4 S 71.697 29.432 69.488 29.432 z" transform=" matrix(1 0 0 1 0 0) " stroke-linecap="round"></path>
      <path d="M 69.488 49 H 20.511 c -2.209 0 -4 -1.791 -4 -4 s 1.791 -4 4 -4 h 48.977 c 2.209 0 4 1.791 4 4 S 71.697 49 69.488 49 z" transform=" matrix(1 0 0 1 0 0) " stroke-linecap="round"></path>
      <path d="M 69.488 68.568 H 20.511 c -2.209 0 -4 -1.791 -4 -4 s 1.791 -4 4 -4 h 48.977 c 2.209 0 4 1.791 4 4 S 71.697 68.568 69.488 68.568 z" transform=" matrix(1 0 0 1 0 0) " stroke-linecap="round"></path>
    </g>
  </symbol>
  <symbol xmlns="http://www.w3.org/2000/svg" fill="currentColor" viewBox="0 0 16 16" id="pc-display">
    <path d="M8 1a1 1 0 0 1 1-1h6a1 1 0 0 1 1 1v14a1 1 0 0 1-1 1H9a1 1 0 0 1-1-1V1Zm1 13.5a.5.5 0 1 0 1 0 .5.5 0 0 0-1 0Zm2 0a.5.5 0 1 0 1 0 .5.5 0 0 0-1 0ZM9.5 1a.5.5 0 0 0 0 1h5a.5.5 0 0 0 0-1h-5ZM9 3.5a.5.5 0 0 0 .5.5h5a.5.5 0 0 0 0-1h-5a.5.5 0 0 0-.5.5ZM1.5 2A1.5 1.5 0 0 0 0 3.5v7A1.5 1.5 0 0 0 1.5 12H6v2h-.5a.5.5 0 0 0 0 1H7v-4H1.5a.5.5 0 0 1-.5-.5v-7a.5.5 0 0 1 .5-.5H7V2H1.5Z"></path>
  </symbol>
  <symbol xmlns="http://www.w3.org/2000/svg" xmlns:xlink="http://www.w3.org/1999/xlink" version="1.1" xml:space="preserve" viewBox="0 0 256 256" id="search">
    <defs></defs>
    <g transform="translate(1.4065934065934016 1.4065934065934016) scale(2.81 2.81)">
      <path d="M 64.595 56.649 l 23.766 23.766 c 2.185 2.185 2.185 5.761 0 7.946 s -5.761 2.185 -7.946 0 L 56.649 64.595 C 56.93 60.372 59.611 57.744 64.595 56.649 z" transform=" matrix(1 0 0 1 0 0) " stroke-linecap="round"></path>
      <path d="M 64.595 56.649 l -3.757 -3.757 c 9.303 -13.084 8.096 -31.346 -3.635 -43.077 C 44.117 -3.272 22.9 -3.271 9.814 9.814 s -13.086 34.302 0 47.388 c 11.731 11.731 29.993 12.937 43.077 3.635 l 3.757 3.757 L 64.595 56.649 z" transform=" matrix(1 0 0 1 0 0) " stroke-linecap="round"></path>
      <circle cx="33.513999999999996" cy="33.513999999999996" r="24.604" transform="  matrix(1 0 0 1 0 0) "></circle>
      <path d="M 21.97 46.927 c -0.512 0 -1.024 -0.195 -1.414 -0.586 c -7.065 -7.065 -7.065 -18.562 0 -25.626 c 0.78 -0.781 2.048 -0.781 2.828 0 c 0.781 0.781 0.781 2.047 0 2.828 c -5.505 5.506 -5.505 14.464 0 19.97 c 0.781 0.781 0.781 2.047 0 2.829 C 22.994 46.731 22.481 46.927 21.97 46.927 z" transform=" matrix(1 0 0 1 0 0) " stroke-linecap="round"></path>
      <path d="M 48.26 41.711 c -0.255 0 -0.515 -0.049 -0.766 -0.153 c -1.02 -0.423 -1.504 -1.593 -1.081 -2.613 c 1.333 -3.214 1.436 -6.795 0.287 -10.083 c -0.364 -1.043 0.186 -2.184 1.229 -2.548 c 1.04 -0.365 2.184 0.186 2.547 1.229 c 1.474 4.218 1.343 8.812 -0.367 12.935 C 49.789 41.247 49.044 41.711 48.26 41.711 z" transform=" matrix(1 0 0 1 0 0) " stroke-linecap="round"></path>
    </g>
  </symbol>
  <symbol xmlns="http://www.w3.org/2000/svg" xmlns:xlink="http://www.w3.org/1999/xlink" version="1.1" xml:space="preserve" viewBox="0 0 256 256" id="settings">
    <defs></defs>
    <g transform="translate(1.4065934065934016 1.4065934065934016) scale(2.81 2.81)">
      <path d="M 88.568 54.357 L 88.568 54.357 c -8.337 -3.453 -8.337 -15.262 0 -18.715 h 0 c 1.183 -0.49 1.745 -1.847 1.255 -3.03 l -4.369 -10.547 c -0.49 -1.183 -1.847 -1.745 -3.03 -1.255 h 0 c -8.337 3.453 -16.687 -4.897 -13.233 -13.233 v 0 c 0.49 -1.183 -0.072 -2.54 -1.255 -3.03 L 57.388 0.177 c -1.183 -0.49 -2.54 0.072 -3.03 1.255 c -3.453 8.337 -15.262 8.337 -18.715 0 c -0.49 -1.183 -1.847 -1.745 -3.03 -1.255 L 22.065 4.546 c -1.183 0.49 -1.745 1.847 -1.255 3.03 c 3.453 8.337 -4.897 16.687 -13.234 13.234 c -1.183 -0.49 -2.54 0.072 -3.03 1.255 L 0.177 32.612 c -0.49 1.183 0.072 2.54 1.255 3.03 l 0 0 c 8.337 3.453 8.337 15.262 0 18.715 l 0 0 c -1.183 0.49 -1.745 1.847 -1.255 3.03 l 4.369 10.547 c 0.49 1.183 1.847 1.745 3.03 1.255 l 0 0 c 8.337 -3.453 16.687 4.897 13.233 13.234 v 0 c -0.49 1.183 0.072 2.54 1.255 3.03 l 10.547 4.369 c 1.183 0.49 2.54 -0.072 3.03 -1.255 v 0 c 3.453 -8.337 15.262 -8.337 18.715 0 v 0 c 0.49 1.183 1.847 1.745 3.03 1.255 l 10.547 -4.369 c 1.183 -0.49 1.745 -1.847 1.255 -3.03 v 0 c -3.453 -8.337 4.897 -16.687 13.234 -13.233 c 1.183 0.49 2.54 -0.072 3.03 -1.255 l 4.369 -10.547 C 90.313 56.204 89.751 54.848 88.568 54.357 z M 45 64.052 c -10.522 0 -19.052 -8.53 -19.052 -19.052 c 0 -10.522 8.53 -19.052 19.052 -19.052 S 64.052 34.478 64.052 45 C 64.052 55.522 55.522 64.052 45 64.052 z" transform=" matrix(1 0 0 1 0 0) " stroke-linecap="round"></path>
    </g>
  </symbol>
  <symbol xmlns="http://www.w3.org/2000/svg" xmlns:xlink="http://www.w3.org/1999/xlink" version="1.1" xml:space="preserve" viewBox="0 0 256 256" id="sun">
    <defs></defs>
    <g transform="translate(1.4065934065934016 1.4065934065934016) scale(2.81 2.81)">
      <path d="M 76.595 79.557 H 5.059 c -2.79 0 -5.059 -2.27 -5.059 -5.059 v -50.65 c 0 -2.79 2.269 -5.059 5.059 -5.059 h 71.536 c 2.79 0 5.06 2.269 5.06 5.059 v 50.65 C 81.654 77.287 79.385 79.557 76.595 79.557 z M 5.059 20.79 C 3.372 20.79 2 22.162 2 23.848 v 50.65 c 0 1.687 1.372 3.059 3.059 3.059 h 71.536 c 1.688 0 3.06 -1.372 3.06 -3.059 v -50.65 c 0 -1.687 -1.372 -3.059 -3.06 -3.059 H 5.059 z" transform=" matrix(1 0 0 1 0 0) " stroke-linecap="round"></path>
      <path d="M 76.595 79.557 H 5.059 c -2.79 0 -5.059 -2.27 -5.059 -5.059 c 0 -0.235 0.083 -0.463 0.234 -0.643 l 15.049 -17.944 c 1.477 -1.761 3.64 -2.813 5.937 -2.89 c 2.307 -0.077 4.524 0.831 6.113 2.489 l 0.95 0.992 c 1.208 1.26 2.909 1.936 4.644 1.873 c 1.744 -0.07 3.377 -0.886 4.481 -2.237 l 7.607 -9.32 c 1.507 -1.846 3.737 -2.931 6.119 -2.977 c 2.384 -0.03 4.651 0.953 6.227 2.739 l 24.044 27.256 c 0.161 0.183 0.25 0.418 0.25 0.661 C 81.654 77.287 79.385 79.557 76.595 79.557 z M 2.019 74.839 c 0.17 1.527 1.468 2.718 3.04 2.718 h 71.536 c 1.567 0 2.862 -1.184 3.039 -2.704 L 55.86 47.903 c -1.187 -1.346 -2.938 -2.099 -4.688 -2.062 c -1.794 0.034 -3.474 0.851 -4.607 2.241 l -7.607 9.32 c -1.466 1.797 -3.635 2.879 -5.951 2.972 c -2.314 0.089 -4.564 -0.813 -6.168 -2.487 l -0.95 -0.992 c -1.196 -1.247 -2.875 -1.915 -4.603 -1.874 c -1.729 0.058 -3.359 0.851 -4.471 2.176 L 2.019 74.839 z" transform=" matrix(1 0 0 1 0 0) " stroke-linecap="round"></path>
      <path d="M 31.282 44.853 c -4.017 0 -7.285 -3.268 -7.285 -7.285 s 3.268 -7.284 7.285 -7.284 s 7.285 3.268 7.285 7.284 S 35.299 44.853 31.282 44.853 z M 31.282 32.284 c -2.914 0 -5.285 2.371 -5.285 5.284 c 0 2.914 2.371 5.285 5.285 5.285 s 5.285 -2.371 5.285 -5.285 C 36.567 34.654 34.196 32.284 31.282 32.284 z" transform=" matrix(1 0 0 1 0 0) " stroke-linecap="round"></path>
      <path d="M 89 67.151 c -0.553 0 -1 -0.447 -1 -1 V 15.502 c 0 -1.687 -1.372 -3.059 -3.059 -3.059 H 13.405 c -0.552 0 -1 -0.448 -1 -1 s 0.448 -1 1 -1 h 71.537 c 2.789 0 5.059 2.27 5.059 5.059 v 50.649 C 90 66.704 89.553 67.151 89 67.151 z" transform=" matrix(1 0 0 1 0 0) " stroke-linecap="round"></path>
    </g>
  </symbol>
</svg>